# This file uses centimeters as units for non-parametric coordinates.

mtllib Floor1.mtl
g default
v 0.502295 1.544474 -1.205937
v 0.319655 1.544474 -1.481108
v 0.032644 1.544474 -1.515881
v -0.255407 1.544474 -1.395664
v -0.474094 1.544474 -1.158798
v -0.679546 1.544474 -0.946470
v -0.825309 1.544474 -0.715868
v -0.848584 1.544474 -0.412217
v -0.839968 1.544474 -0.115412
v -0.721892 1.544474 0.180485
v -0.536333 1.544474 0.431385
v -0.268221 1.544474 0.579149
v 0.028983 1.544474 0.630065
v 0.326187 1.544474 0.579149
v 0.594299 1.544474 0.431385
v 0.807073 1.544474 0.201237
v 0.936309 1.544474 -0.128676
v 0.942054 1.544474 -0.373227
v 0.502295 1.591061 -1.205937
v 0.319655 1.591061 -1.481108
v 0.032644 1.591061 -1.515881
v -0.255407 1.591061 -1.395664
v -0.474094 1.591061 -1.158798
v -0.679546 1.591061 -0.946470
v -0.825309 1.591061 -0.715868
v -0.848584 1.591061 -0.412217
v -0.839968 1.591061 -0.115412
v -0.721892 1.591061 0.180485
v -0.536333 1.591061 0.431385
v -0.268221 1.591061 0.579149
v 0.028983 1.591061 0.630065
v 0.382236 1.591061 0.568640
v 0.594299 1.591061 0.431385
v 0.807073 1.591061 0.201237
v 0.936309 1.591061 -0.128676
v 0.942054 1.591061 -0.373227
v 0.028983 1.544474 -0.410237
v 0.028983 1.591061 -0.410237
v 0.560318 1.591061 -0.409053
v 0.558599 1.591061 -0.600602
v 0.559605 1.591061 -0.884451
v 0.560551 1.591061 -1.151177
v 0.560551 1.544474 -1.151177
v 0.560359 1.544474 -0.409053
v 0.560409 1.544474 -0.601253
v 0.560482 1.544474 -0.885235
vt 0.037943 0.023872
vt 0.618386 0.957631
vt 0.702236 0.852216
vt 0.484937 0.547394
vt 0.486618 0.970952
vt 0.354373 0.924898
vt 0.253974 0.834158
vt 0.159650 0.752818
vt 0.092730 0.664477
vt 0.082045 0.548152
vt 0.086000 0.434450
vt 0.140209 0.321095
vt 0.225400 0.224979
vt 0.348490 0.168372
vt 0.484937 0.148867
vt 0.621384 0.168372
vt 0.744475 0.224979
vt 0.842160 0.313145
vt 0.901493 0.439531
vt 0.990993 0.039852
vt 0.728893 0.546940
vt 0.728085 0.620320
vt 0.728547 0.729059
vt 0.484937 0.547394
vt 0.702236 0.852216
vt 0.618386 0.957631
vt 0.486618 0.970952
vt 0.354373 0.924898
vt 0.396162 0.069433
vt 0.511286 0.097413
vt 0.681872 0.097333
vt 0.253974 0.834158
vt 0.159650 0.752818
vt 0.092730 0.664477
vt 0.082045 0.548152
vt 0.086000 0.434450
vt 0.140209 0.321095
vt 0.225400 0.224979
vt 0.348490 0.168372
vt 0.484937 0.148867
vt 0.396167 0.097431
vt 0.511668 0.069394
vt 0.682332 0.069331
vt 0.647116 0.172398
vt 0.165767 0.069270
vt 0.842166 0.097264
vt 0.744475 0.224979
vt 0.883040 0.046081
vt 0.990067 0.023806
vt 0.882114 0.030036
vt 0.796038 0.051102
vt 0.776605 0.034739
vt 0.672352 0.049279
vt 0.672589 0.033209
vt 0.568337 0.047749
vt 0.568573 0.031679
vt 0.462734 0.046196
vt 0.462970 0.030125
vt 0.355086 0.044612
vt 0.355322 0.028541
vt 0.245188 0.042995
vt 0.245424 0.026925
vt 0.142760 0.041488
vt 0.142996 0.025418
vt 0.037707 0.039943
vt 0.842160 0.313145
vt 0.901493 0.439531
vt 0.904130 0.533215
vt 0.728874 0.546940
vt 0.728916 0.620569
vt 0.842155 0.069266
vt 0.728950 0.729359
vt 0.728981 0.831238
vt 0.904130 0.533215
vt 0.728981 0.831238
vt 0.165747 0.097267
vn -0.953415 0.000000 -0.301661
vn -0.999702 0.000000 -0.024407
vn -0.999702 0.000000 -0.024407
vn -0.953415 0.000000 -0.301661
vn -0.999702 0.000000 -0.024407
vn -0.982885 0.000000 0.184222
vn -0.982885 0.000000 0.184222
vn -0.999702 0.000000 -0.024407
vn -0.982885 0.000000 0.184222
vn -0.874253 0.000000 0.485471
vn -0.874253 0.000000 0.485471
vn -0.982885 0.000000 0.184222
vn -0.874253 0.000000 0.485471
vn -0.636783 0.000000 0.771043
vn -0.636783 0.000000 0.771043
vn -0.874253 0.000000 0.485471
vn -0.636783 0.000000 0.771043
vn -0.331569 0.000000 0.943431
vn -0.331569 0.000000 0.943431
vn -0.636783 0.000000 0.771043
vn -0.331569 0.000000 0.943431
vn 0.000000 0.000000 1.000000
vn 0.000000 0.000000 1.000000
vn -0.331569 0.000000 0.943431
vn 0.000000 0.000000 1.000000
vn 0.331569 0.000000 0.943431
vn 0.331569 0.000000 0.943431
vn 0.000000 0.000000 1.000000
vn 0.331569 0.000000 0.943431
vn 0.617895 0.000000 0.786261
vn 0.617895 0.000000 0.786261
vn 0.331569 0.000000 0.943431
vn 0.617895 0.000000 0.786261
vn 0.887088 0.000000 0.461600
vn 0.887088 0.000000 0.461600
vn 0.617895 0.000000 0.786261
vn 0.000000 -1.000000 0.000000
vn 0.000000 -1.000000 0.000000
vn 0.000000 -1.000000 -0.000000
vn 0.000000 -1.000000 0.000000
vn 0.000000 -1.000000 0.000000
vn 0.000000 -1.000000 -0.000000
vn 0.000000 -1.000000 0.000000
vn 0.000000 -1.000000 0.000000
vn 0.000000 -1.000000 -0.000000
vn 0.000000 -1.000000 0.000000
vn 0.000000 -1.000000 0.000000
vn 0.000000 -1.000000 -0.000000
vn 0.000000 -1.000000 0.000000
vn 0.000000 -1.000000 0.000000
vn 0.000000 -1.000000 -0.000000
vn 0.000000 -1.000000 0.000000
vn 0.000000 -1.000000 0.000000
vn 0.000000 -1.000000 -0.000000
vn 0.000000 -1.000000 0.000000
vn 0.000000 -1.000000 0.000000
vn 0.000000 -1.000000 -0.000000
vn 0.000000 -1.000000 0.000000
vn 0.000000 -1.000000 0.000000
vn 0.000000 -1.000000 -0.000000
vn 0.000000 -1.000000 0.000000
vn 0.000000 -1.000000 0.000000
vn 0.000000 -1.000000 -0.000000
vn 0.000000 -1.000000 0.000000
vn 0.000000 -1.000000 0.000000
vn 0.000000 -1.000000 -0.000000
vn 0.000000 -1.000000 -0.000000
vn 0.000000 -1.000000 0.000000
vn 0.000000 -1.000000 -0.000000
vn 0.000000 -1.000000 -0.000000
vn 0.000000 -1.000000 -0.000000
vn 0.000000 -1.000000 -0.000000
vn 0.000000 -1.000000 -0.000000
vn 0.000000 -1.000000 -0.000000
vn 0.000000 -1.000000 -0.000000
vn 0.000000 -1.000000 -0.000000
vn 0.000000 -1.000000 -0.000000
vn 0.000000 -1.000000 -0.000000
vn 0.000000 -1.000000 0.000000
vn 0.000000 -1.000000 -0.000000
vn 0.000000 -1.000000 -0.000000
vn 0.000000 -1.000000 0.000000
vn 0.000000 -1.000000 0.000000
vn 0.000000 -1.000000 -0.000000
vn 0.000000 -1.000000 0.000000
vn 0.000000 -1.000000 0.000000
vn 0.000000 -1.000000 -0.000000
vn 0.000000 1.000000 0.000000
vn 0.000000 1.000000 0.000000
vn 0.000000 1.000000 0.000000
vn 0.000000 1.000000 0.000001
vn 0.000000 1.000000 0.000000
vn 0.000000 1.000000 0.000000
vn 0.000000 1.000000 0.000000
vn 0.000000 1.000000 0.000000
vn 0.000000 1.000000 0.000000
vn 0.000000 1.000000 0.000000
vn 0.000000 1.000000 -0.000000
vn 0.000000 1.000000 0.000000
vn 0.000000 1.000000 -0.000000
vn 0.000000 1.000000 0.000000
vn 0.000000 1.000000 0.000000
vn 0.000000 1.000000 0.000000
vn 0.000000 1.000000 0.000000
vn 0.000000 1.000000 0.000000
vn 0.000000 1.000000 0.000000
vn 0.000000 1.000000 0.000000
vn 0.000000 1.000000 0.000000
vn 0.000000 1.000000 0.000000
vn 0.000000 1.000000 0.000000
vn 0.000000 1.000000 0.000000
vn 0.000000 1.000000 0.000000
vn 0.000000 1.000000 0.000000
vn 0.000000 1.000000 0.000000
vn 0.000000 1.000000 0.000000
vn 0.000000 1.000000 0.000000
vn 0.000000 1.000000 0.000000
vn 0.000000 1.000000 0.000000
vn 0.000000 1.000000 0.000000
vn 0.000000 1.000000 0.000000
vn 0.000000 1.000000 0.000000
vn 0.000000 1.000000 0.000000
vn 0.000000 1.000000 0.000000
vn 0.000000 1.000000 0.000000
vn 0.000000 1.000000 -0.000000
vn 0.000000 1.000000 0.000000
vn 0.000000 1.000000 -0.000000
vn 0.000000 1.000000 -0.000000
vn 0.000000 1.000000 0.000000
vn 0.000000 1.000000 -0.000000
vn 0.000000 1.000000 -0.000000
vn 0.000000 1.000000 0.000000
vn 0.000000 1.000000 -0.000000
vn 0.000000 1.000000 -0.000000
vn 0.000000 1.000000 0.000000
vn 0.000000 1.000000 -0.000000
vn 0.000000 1.000000 0.000000
vn 0.000000 1.000000 0.000000
vn 0.000000 1.000000 0.000000
vn 0.000000 1.000000 0.000000
vn 0.000000 1.000000 0.000000
vn 0.000000 1.000000 0.000000
vn 0.000000 1.000000 0.000000
vn 0.000000 1.000000 0.000000
vn 0.000000 1.000000 -0.000001
vn 0.000000 1.000000 -0.000001
vn 0.000000 1.000000 0.000000
vn 0.000000 -1.000000 0.000000
vn 0.000000 -1.000000 0.000000
vn 0.000000 -1.000000 -0.000000
vn 0.000000 -1.000000 0.000000
vn 0.000000 -1.000000 0.000000
vn 0.000000 -1.000000 -0.000000
vn 0.000000 -1.000000 0.000000
vn 0.000000 -1.000000 0.000001
vn 0.000000 -1.000000 -0.000001
vn 0.000000 1.000000 0.000000
vn 0.000000 1.000000 0.000000
vn 0.000000 1.000000 0.000000
vn 0.000000 -1.000000 0.000000
vn 0.000000 -1.000000 0.000000
vn 0.000000 -1.000000 0.000000
vn 0.000000 1.000000 0.000001
vn 0.000000 1.000000 -0.000001
vn 0.000000 1.000000 0.000000
vn 0.000000 -1.000000 0.000000
vn 0.000000 -1.000000 -0.000001
vn 0.000000 -1.000000 -0.000000
vn 0.999808 0.019508 0.001902
vn 0.999812 0.019301 0.001902
vn 0.999954 0.009392 0.001904
vn 0.999954 0.009392 0.001904
vn 0.093446 0.000040 -0.995624
vn 0.093446 0.000040 -0.995624
vn 0.511275 0.008604 -0.859374
vn 0.511631 0.008612 -0.859162
vn 0.511631 0.008612 -0.859162
vn 0.511275 0.008604 -0.859374
vn 0.999681 0.025240 -0.000593
vn 0.999683 0.025164 -0.000646
vn 0.999683 0.025164 -0.000646
vn 0.999681 0.025240 -0.000593
vn 0.999812 0.019301 0.001902
vn 0.999808 0.019508 0.001902
s off
g CuisineFloor Cuisine Arbre
usemtl CuisineFloorSG
f 7/1/1 8/64/2 26/63/3 25/65/4
f 8/64/5 9/62/6 27/61/7 26/63/8
f 9/62/9 10/60/10 28/59/11 27/61/12
f 10/60/13 11/58/14 29/57/15 28/59/16
f 11/58/17 12/56/18 30/55/19 29/57/20
f 12/56/21 13/54/22 31/53/23 30/55/24
f 13/54/25 14/52/26 32/51/27 31/53/28
f 14/52/29 15/50/30 33/48/31 32/51/32
f 15/50/33 16/49/34 34/20/35 33/48/36
f 2/2/37 1/3/38 37/4/39
f 3/5/40 2/2/41 37/4/42
f 4/6/43 3/5/44 37/4/45
f 5/7/46 4/6/47 37/4/48
f 6/8/49 5/7/50 37/4/51
f 7/9/52 6/8/53 37/4/54
f 8/10/55 7/9/56 37/4/57
f 9/11/58 8/10/59 37/4/60
f 10/12/61 9/11/62 37/4/63
f 11/13/64 10/12/65 37/4/66
f 12/14/67 11/13/68 37/4/69
f 13/15/70 12/14/71 37/4/72
f 14/16/73 13/15/74 37/4/75
f 15/17/76 14/16/77 37/4/78
f 16/18/79 15/17/80 37/4/81
f 17/19/82 16/18/83 37/4/84
f 44/21/85 17/19/86 37/4/87
f 40/22/88 41/23/89 38/24/90
f 41/23/91 19/25/92 38/24/93
f 19/25/94 20/26/95 38/24/96
f 20/26/97 21/27/98 38/24/99
f 21/27/100 22/28/101 38/24/102
f 22/28/103 23/32/104 38/24/105
f 23/32/106 24/33/107 38/24/108
f 24/33/109 25/34/110 38/24/111
f 25/34/112 26/35/113 38/24/114
f 26/35/115 27/36/116 38/24/117
f 27/36/118 28/37/119 38/24/120
f 28/37/121 29/38/122 38/24/123
f 29/38/124 30/39/125 38/24/126
f 30/39/127 31/40/128 38/24/129
f 31/40/130 32/44/131 38/24/132
f 32/44/133 33/47/134 38/24/135
f 33/47/136 34/66/137 38/24/138
f 34/66/139 35/67/140 38/24/141
f 35/67/142 36/68/143 39/69/144
f 39/69/145 40/22/146 38/24/147
f 45/70/148 44/21/149 37/4/150
f 46/72/151 45/70/152 37/4/153
f 1/3/154 43/73/155 46/72/156
f 35/67/157 39/69/158 38/24/159
f 18/74/160 17/19/161 44/21/162
f 41/23/163 42/75/164 19/25/165
f 1/3/166 46/72/167 37/4/168
f 41/31/169 46/43/170 43/71/171 42/46/172
f 36/76/173 18/45/174 44/29/175 39/41/176
f 39/41/177 44/29/178 45/42/179 40/30/180
f 40/30/181 45/42/182 46/43/183 41/31/184
