# This file uses centimeters as units for non-parametric coordinates.

mtllib Floor3.mtl
g default
v 1.081003 3.425403 -0.715230
v 0.828630 3.425403 -0.993035
v 0.594235 3.425403 -1.133018
v 0.436320 3.425403 -1.301614
v 0.179641 3.425403 -1.435550
v -0.102720 3.425403 -1.345736
v -0.670040 3.425403 -0.674160
v -0.791947 3.425403 -0.412230
v -0.782570 3.425403 -0.113572
v -0.668356 3.425403 0.197391
v -0.452094 3.425403 0.436636
v -0.160281 3.425403 0.585321
v 0.163195 3.425403 0.636555
v 0.486672 3.425403 0.585321
v 0.778484 3.425403 0.436636
v 1.010068 3.425403 0.205052
v 1.089725 3.425403 -0.116345
v 1.130292 3.425403 -0.408245
v 1.081003 3.476626 -0.715230
v 0.828630 3.476626 -0.993035
v 0.594235 3.476626 -1.133018
v 0.436320 3.476626 -1.301614
v 0.179641 3.476626 -1.435550
v -0.102720 3.476626 -1.345736
v -0.670040 3.476626 -0.674160
v -0.791947 3.476626 -0.412230
v -0.782570 3.476626 -0.113572
v -0.668356 3.476626 0.197391
v -0.452094 3.476626 0.436636
v -0.160281 3.476626 0.585321
v 0.163195 3.476626 0.636555
v 0.486672 3.476626 0.585321
v 0.778484 3.476626 0.436636
v 1.010068 3.476626 0.205052
v 1.089725 3.476626 -0.116345
v 1.130292 3.476626 -0.408245
v 0.163195 3.425403 -0.410237
v 0.163195 3.476626 -0.410237
v -0.596803 3.476626 -0.793530
v -0.593900 3.476626 -0.650044
v -0.299600 3.476626 -0.556825
v -0.221528 3.476626 -0.691449
v -0.223259 3.476626 -0.971148
v -0.224928 3.476626 -1.240955
v -0.592153 3.476625 -0.563668
v -0.220684 3.476625 -0.554980
v -0.596803 3.425403 -0.793530
v -0.224928 3.425403 -1.240955
v -0.309908 3.425403 -0.560090
v -0.593169 3.425403 -0.649812
v -0.220911 3.425403 -0.690998
v -0.222954 3.425403 -0.970706
v -0.591081 3.425403 -0.567267
v -0.219938 3.425403 -0.557794
vt 0.770358 0.807135
vt 0.876383 0.698866
vt 0.490799 0.580001
vt 0.671885 0.861690
vt 0.605543 0.927397
vt 0.497709 0.979596
vt 0.379084 0.944593
vt 0.328572 0.798432
vt 0.327743 0.903757
vt 0.329431 0.689422
vt 0.140745 0.682860
vt 0.171513 0.729382
vt 0.161713 0.096824
vt 0.173040 0.673371
vt 0.089530 0.580778
vt 0.173917 0.641201
vt 0.093470 0.464382
vt 0.141452 0.343191
vt 0.232308 0.249950
vt 0.354902 0.192003
vt 0.060073 0.046679
vt 0.490799 0.172036
vt 0.626697 0.192003
vt 0.749291 0.249950
vt 0.846583 0.340205
vt 0.880048 0.465463
vt 0.897090 0.579225
vt 0.876383 0.698866
vt 0.770358 0.807135
vt 0.490799 0.580001
vt 0.671885 0.861690
vt 0.605543 0.927397
vt 0.497709 0.979596
vt 0.798637 0.065912
vt 0.379084 0.944593
vt 0.173467 0.639798
vt 0.089530 0.580778
vt 0.296372 0.637131
vt 0.093470 0.464382
vt 0.454931 0.108839
vt 0.533024 0.111583
vt 0.374104 0.105999
vt 0.204501 0.107616
vt 0.228267 0.105347
vt 0.141452 0.343191
vt 0.227887 0.090501
vt 0.312497 0.089960
vt 0.203021 0.092878
vt 0.374756 0.091201
vt 0.335321 0.089815
vt 0.455579 0.094042
vt 0.232308 0.249950
vt 0.309590 0.104816
vt 0.335612 0.104646
vt 0.354902 0.192003
vt 0.490799 0.172036
vt 0.626697 0.192003
vt 0.749291 0.249950
vt 0.846583 0.340205
vt 0.533545 0.096782
vt 0.880048 0.465463
vt 0.897090 0.579225
vt 0.172733 0.673461
vt 0.171513 0.729382
vt 0.140745 0.682860
vt 0.329171 0.689598
vt 0.329526 0.636412
vt 0.328444 0.798605
vt 0.163121 0.111567
vt 0.327743 0.903757
vt 0.292042 0.638403
vt 0.675229 0.065923
vt 0.798635 0.046611
vt 0.675227 0.046622
vt 0.551821 0.065935
vt 0.551819 0.046633
vt 0.428413 0.065946
vt 0.428411 0.046645
vt 0.305005 0.065957
vt 0.305003 0.046656
vt 0.181596 0.065969
vt 0.181595 0.046667
vt 0.060075 0.065980
vt 0.329839 0.637509
vn -0.857251 0.000000 0.514899
vn -0.606859 0.000000 0.794809
vn -0.606859 0.000000 0.794809
vn -0.857251 0.000000 0.514899
vn -0.606859 0.000000 0.794809
vn -0.309017 0.000000 0.951057
vn -0.309017 0.000000 0.951057
vn -0.606859 0.000000 0.794809
vn -0.309017 0.000000 0.951057
vn 0.000000 0.000000 1.000000
vn 0.000000 0.000000 1.000000
vn -0.309017 0.000000 0.951057
vn 0.000000 0.000000 1.000000
vn 0.309017 0.000000 0.951057
vn 0.309017 0.000000 0.951057
vn 0.000000 0.000000 1.000000
vn 0.309017 0.000000 0.951057
vn 0.587785 0.000000 0.809018
vn 0.587785 0.000000 0.809018
vn 0.309017 0.000000 0.951057
vn 0.587785 0.000000 0.809018
vn 0.871448 0.000000 0.490488
vn 0.871448 0.000000 0.490488
vn 0.587785 0.000000 0.809018
vn 0.000000 -1.000000 -0.000001
vn 0.000000 -1.000000 0.000000
vn 0.000000 -1.000000 0.000000
vn 0.000000 -1.000000 -0.000001
vn 0.000000 -1.000000 -0.000001
vn 0.000000 -1.000000 0.000000
vn 0.000000 -1.000000 0.000000
vn 0.000000 -1.000000 -0.000001
vn 0.000000 -1.000000 0.000000
vn 0.000000 -1.000000 0.000000
vn 0.000000 -1.000000 0.000000
vn 0.000000 -1.000000 0.000000
vn 0.000000 -1.000000 0.000000
vn 0.000000 -1.000000 0.000000
vn 0.000000 -1.000000 0.000000
vn 0.000000 -1.000000 0.000000
vn 0.000000 -1.000000 0.000000
vn 0.000000 -1.000000 0.000000
vn 0.000000 -1.000000 0.000000
vn 0.000000 -1.000000 0.000000
vn 0.000000 -1.000000 0.000000
vn 0.000000 -1.000000 0.000000
vn -0.000001 -1.000000 -0.000002
vn 0.000000 -1.000000 0.000000
vn -0.000001 -1.000000 -0.000003
vn -0.000000 -1.000000 0.000000
vn -0.000001 -1.000000 -0.000002
vn -0.000001 -1.000000 -0.000003
vn -0.000000 -1.000000 0.000002
vn 0.000000 -1.000000 0.000000
vn -0.000000 -1.000000 0.000000
vn 0.000000 -1.000000 0.000000
vn 0.000000 -1.000000 0.000000
vn 0.000000 -1.000000 0.000000
vn 0.000000 -1.000000 0.000000
vn 0.000000 -1.000000 0.000000
vn 0.000000 -1.000000 0.000000
vn 0.000000 -1.000000 0.000000
vn 0.000000 -1.000000 0.000000
vn 0.000000 -1.000000 0.000000
vn 0.000000 -1.000000 0.000000
vn 0.000000 -1.000000 0.000000
vn 0.000000 -1.000000 0.000000
vn 0.000000 -1.000000 0.000000
vn 0.000000 -1.000000 0.000000
vn 0.000000 -1.000000 0.000000
vn 0.000000 -1.000000 0.000000
vn 0.000000 -1.000000 0.000000
vn 0.000000 -1.000000 0.000000
vn 0.000000 -1.000000 0.000000
vn 0.000000 -1.000000 0.000000
vn 0.000000 -1.000000 0.000000
vn 0.000000 -1.000000 0.000000
vn 0.000000 -1.000000 0.000000
vn 0.000000 -1.000000 0.000000
vn 0.000000 -1.000000 0.000000
vn 0.000000 -1.000000 0.000000
vn 0.000000 -1.000000 0.000000
vn 0.000000 -1.000000 0.000000
vn 0.000000 -1.000000 0.000000
vn 0.000000 -1.000000 0.000000
vn 0.000000 -1.000000 0.000000
vn 0.000000 1.000000 0.000000
vn 0.000000 1.000000 0.000000
vn -0.000000 1.000000 -0.000000
vn 0.000000 1.000000 0.000000
vn 0.000000 1.000000 0.000000
vn -0.000000 1.000000 -0.000000
vn 0.000000 1.000000 0.000000
vn 0.000000 1.000000 -0.000000
vn -0.000000 1.000000 -0.000000
vn 0.000000 1.000000 -0.000000
vn 0.000000 1.000000 -0.000000
vn -0.000000 1.000000 -0.000000
vn 0.000000 1.000000 -0.000000
vn 0.000000 1.000000 -0.000000
vn -0.000000 1.000000 -0.000000
vn 0.000000 1.000000 -0.000002
vn 0.000000 1.000000 -0.000000
vn -0.000000 1.000000 -0.000000
vn -0.000000 1.000000 -0.000003
vn 0.000000 1.000000 -0.000000
vn 0.000000 1.000000 0.000000
vn -0.000000 1.000000 -0.000000
vn 0.000000 1.000000 0.000000
vn 0.000000 1.000000 0.000001
vn -0.000000 1.000000 -0.000000
vn 0.000000 1.000000 0.000001
vn 0.000000 1.000000 0.000001
vn -0.000000 1.000000 -0.000000
vn 0.000000 1.000000 0.000001
vn 0.000000 1.000000 0.000000
vn -0.000000 1.000000 -0.000000
vn 0.000000 1.000000 0.000000
vn 0.000000 1.000000 0.000000
vn -0.000000 1.000000 -0.000000
vn 0.000000 1.000000 0.000000
vn 0.000000 1.000000 -0.000001
vn -0.000000 1.000000 -0.000000
vn 0.000000 1.000000 -0.000001
vn 0.000000 1.000000 -0.000000
vn -0.000000 1.000000 -0.000000
vn 0.000000 1.000000 -0.000000
vn 0.000000 1.000000 0.000001
vn -0.000000 1.000000 -0.000000
vn 0.000000 1.000000 0.000001
vn 0.000000 1.000000 0.000000
vn -0.000000 1.000000 -0.000000
vn 0.000000 1.000000 0.000000
vn 0.000000 1.000000 -0.000001
vn -0.000000 1.000000 -0.000000
vn 0.000000 1.000000 -0.000001
vn 0.000000 1.000000 0.000000
vn -0.000000 1.000000 -0.000000
vn 0.000002 1.000000 0.000003
vn 0.000000 1.000000 0.000000
vn 0.000002 1.000000 0.000002
vn -0.000000 1.000000 0.000000
vn -0.000000 1.000000 0.000000
vn -0.000000 1.000000 -0.000000
vn 0.000000 1.000000 0.000002
vn -0.000000 1.000000 0.000000
vn -0.000000 1.000000 -0.000000
vn 0.000000 1.000000 -0.000000
vn 0.000000 1.000000 -0.000000
vn -0.000000 1.000000 -0.000000
vn -0.000000 1.000000 -0.000000
vn -0.000000 1.000000 0.000000
vn -0.000000 1.000000 -0.000003
vn 0.000002 1.000000 0.000002
vn 0.000000 1.000000 -0.000000
vn 0.000000 1.000000 -0.000002
vn 0.000002 1.000000 0.000003
vn -0.000000 1.000000 -0.000000
vn 0.000000 1.000000 -0.000000
vn 0.000000 1.000000 0.000002
vn 0.000000 -1.000000 0.000003
vn 0.000000 -1.000000 0.000000
vn 0.000000 -1.000000 0.000000
vn -0.000000 -1.000000 0.000000
vn -0.000000 -1.000000 0.000002
vn 0.000000 -1.000000 0.000003
vn 0.000000 -1.000000 0.000000
vn 0.000000 -1.000000 0.000000
vn 0.000000 -1.000000 0.000000
vn 0.000000 -1.000000 0.000000
vn 0.024378 0.064641 -0.997611
vn 0.024378 0.064641 -0.997611
vn 0.024378 0.064641 -0.997611
vn 0.024378 0.064641 -0.997611
vn 0.024479 0.056942 -0.998077
vn 0.024479 0.056942 -0.998077
vn 0.024479 0.056942 -0.998077
vn 0.024479 0.056942 -0.998077
vn -0.999887 -0.013458 0.006740
vn -0.999887 -0.013458 0.006740
vn -0.999887 -0.013458 0.006740
vn -0.999887 -0.013458 0.006740
vn -0.999937 -0.008934 0.006744
vn -0.999937 -0.008934 0.006744
vn -0.999937 -0.008934 0.006744
vn -0.999937 -0.008934 0.006744
vn -0.999973 -0.002942 0.006746
vn -0.999973 -0.002942 0.006746
vn -0.999973 -0.002942 0.006746
vn -0.999973 -0.002942 0.006746
vn 0.999678 0.011239 -0.022729
vn 0.999678 0.011271 -0.022729
vn 0.999716 0.007087 -0.022752
vn 0.999716 0.007087 -0.022752
vn 0.999678 0.011239 -0.022729
vn 0.999574 0.018340 -0.022690
vn 0.999574 0.018340 -0.022690
vn 0.999678 0.011271 -0.022729
s off
g BureauFloor Bureau1 Arbre
usemtl SalonSG
f 10/21/1 11/82/2 29/81/3 28/83/4
f 11/82/5 12/80/6 30/79/7 29/81/8
f 12/80/9 13/78/10 31/77/11 30/79/12
f 13/78/13 14/76/14 32/75/15 31/77/16
f 14/76/17 15/74/18 33/72/19 32/75/20
f 15/74/21 16/73/22 34/34/23 33/72/24
f 2/1/25 1/2/26 37/3/27
f 3/4/28 2/1/29 37/3/30
f 4/5/31 3/4/32 37/3/33
f 5/6/34 4/5/35 37/3/36
f 6/7/37 5/6/38 37/3/39
f 52/8/40 48/9/41 6/7/42 37/3/43
f 51/10/44 52/8/45 37/3/46
f 7/11/47 47/12/48 50/14/49
f 8/15/50 7/11/51 50/14/52 53/16/53
f 9/17/54 8/15/55 37/3/56
f 10/18/57 9/17/58 37/3/59
f 11/19/60 10/18/61 37/3/62
f 12/20/63 11/19/64 37/3/65
f 13/22/66 12/20/67 37/3/68
f 14/23/69 13/22/70 37/3/71
f 15/24/72 14/23/73 37/3/74
f 16/25/75 15/24/76 37/3/77
f 17/26/78 16/25/79 37/3/80
f 18/27/81 17/26/82 37/3/83
f 1/2/84 18/27/85 37/3/86
f 19/28/87 20/29/88 38/30/89
f 20/29/90 21/31/91 38/30/92
f 21/31/93 22/32/94 38/30/95
f 22/32/96 23/33/97 38/30/98
f 23/33/99 24/35/100 38/30/101
f 45/36/102 26/37/103 38/30/104 41/38/105
f 26/37/106 27/39/107 38/30/108
f 27/39/109 28/45/110 38/30/111
f 28/45/112 29/52/113 38/30/114
f 29/52/115 30/55/116 38/30/117
f 30/55/118 31/56/119 38/30/120
f 31/56/121 32/57/122 38/30/123
f 32/57/124 33/58/125 38/30/126
f 33/58/127 34/59/128 38/30/129
f 34/59/130 35/61/131 38/30/132
f 35/61/133 36/62/134 38/30/135
f 36/62/136 19/28/137 38/30/138
f 40/63/139 39/64/140 25/65/141
f 42/66/142 46/67/143 38/30/144
f 43/68/145 42/66/146 38/30/147
f 24/35/148 44/70/149 38/30/150
f 38/30/151 46/67/152 41/38/153
f 25/65/154 26/37/155 45/36/156 40/63/157
f 38/30/158 44/70/159 43/68/160
f 49/71/161 54/84/162 37/3/163
f 8/15/164 53/16/165 49/71/166 37/3/167
f 37/3/168 54/84/169 51/10/170
f 45/46/171 41/47/172 49/53/173 53/44/174
f 41/47/175 46/50/176 54/54/177 49/53/178
f 46/50/179 42/49/180 51/42/181 54/54/182
f 42/49/183 43/51/184 52/40/185 51/42/186
f 43/51/187 44/60/188 48/41/189 52/40/190
f 40/48/191 50/43/192 47/69/193 39/13/194
f 40/48/195 45/46/196 53/44/197 50/43/198
